<?xml version="1.0" encoding="UTF-8"?>
<svg width="235" height="28" viewBox="0 0 235 28" fill="none" xmlns="http://www.w3.org/2000/svg">
<path fill-rule="evenodd" clip-rule="evenodd" d="M9.23991 12.188V14.647H15.1229C14.9469 16.03 14.4859 17.039 13.7839 17.742C12.9279 18.598 11.5879 19.542 9.23991 19.542C5.61791 19.542 2.78591 16.622 2.78591 13C2.78591 9.378 5.61791 6.459 9.23991 6.459C11.1929 6.459 12.6199 7.227 13.6739 8.215L15.4079 6.481C13.9369 5.076 11.9839 4 9.23991 4C4.27891 4 0.10791 8.039 0.10791 13C0.10791 17.961 4.27891 22 9.23991 22C11.9179 22 13.9369 21.122 15.5179 19.476C17.1419 17.851 17.6469 15.569 17.6469 13.724C17.6469 13.154 17.6039 12.627 17.5149 12.188H9.23991Z" fill="#4285F4"/>
<path fill-rule="evenodd" clip-rule="evenodd" d="M25.0004 19.5206C23.2404 19.5206 21.7214 18.0686 21.7214 15.9996C21.7214 13.9106 23.2404 12.4796 25.0004 12.4796C26.7604 12.4796 28.2784 13.9106 28.2784 15.9996C28.2784 18.0686 26.7604 19.5206 25.0004 19.5206ZM25.0004 10.1916C21.7884 10.1916 19.1694 12.6336 19.1694 15.9996C19.1694 19.3446 21.7884 21.8096 25.0004 21.8096C28.2124 21.8096 30.8314 19.3446 30.8314 15.9996C30.8314 12.6336 28.2124 10.1916 25.0004 10.1916Z" fill="#E94235"/>
<path fill-rule="evenodd" clip-rule="evenodd" d="M50.6545 19.5206C48.8945 19.5206 47.5525 18.0246 47.5525 16.0006C47.5525 13.9536 48.8945 12.4796 50.6545 12.4796C52.3925 12.4796 53.7565 13.9766 53.7565 16.0226C53.7565 18.0466 52.3925 19.5206 50.6545 19.5206ZM53.5795 11.4896H53.4915C52.9195 10.8076 51.8195 10.1916 50.4335 10.1916C47.5295 10.1916 45.0005 12.7216 45.0005 16.0006C45.0005 19.2566 47.5295 21.8096 50.4335 21.8096C51.8195 21.8096 52.9195 21.1926 53.4915 20.4886H53.5795V21.3016C53.5795 23.5236 52.3915 24.7116 50.4775 24.7116C48.9155 24.7116 47.9465 23.5896 47.5505 22.6436L45.3285 23.5676C45.9675 25.1076 47.6605 27.0006 50.4775 27.0006C53.4695 27.0006 56.0005 25.2396 56.0005 20.9496V10.4906H53.5795V11.4896Z" fill="#4285F4"/>
<path fill-rule="evenodd" clip-rule="evenodd" d="M38.0004 19.5206C36.2404 19.5206 34.7224 18.0686 34.7224 15.9996C34.7224 13.9106 36.2404 12.4796 38.0004 12.4796C39.7604 12.4796 41.2784 13.9106 41.2784 15.9996C41.2784 18.0686 39.7604 19.5206 38.0004 19.5206ZM38.0004 10.1916C34.7884 10.1916 32.1694 12.6336 32.1694 15.9996C32.1694 19.3446 34.7884 21.8096 38.0004 21.8096C41.2124 21.8096 43.8314 19.3446 43.8314 15.9996C43.8314 12.6336 41.2124 10.1916 38.0004 10.1916Z" fill="#FBBC04"/>
<path fill-rule="evenodd" clip-rule="evenodd" d="M58 21.8093H60.51V4.2403H58V21.8093Z" fill="#34A853"/>
<path fill-rule="evenodd" clip-rule="evenodd" d="M68.076 12.368C69.109 12.368 69.984 12.894 70.276 13.65L65.03 15.824C65.03 13.375 66.762 12.368 68.076 12.368ZM68.265 19.521C66.967 19.521 66.043 18.927 65.448 17.761L73.215 14.548L72.951 13.888C72.467 12.59 70.993 10.192 67.979 10.192C64.986 10.192 62.5 12.546 62.5 16C62.5 19.257 64.964 21.809 68.265 21.809C70.927 21.809 72.467 20.181 73.106 19.235L71.125 17.914C70.465 18.883 69.563 19.521 68.265 19.521Z" fill="#E94235"/>
<path d="M86.16 21.352C85.3973 21.352 84.642 21.1907 83.894 20.868C83.146 20.5453 82.486 20.0687 81.914 19.438C81.342 18.8073 80.924 18.0227 80.66 17.084L82.442 16.358C82.6913 17.2673 83.146 18.03 83.806 18.646C84.466 19.262 85.2653 19.57 86.204 19.57C86.7907 19.57 87.326 19.4673 87.81 19.262C88.3087 19.042 88.7047 18.7267 88.998 18.316C89.306 17.9053 89.46 17.4067 89.46 16.82C89.46 16.0427 89.1667 15.4267 88.58 14.972C88.008 14.5027 87.1573 14.07 86.028 13.674L85.038 13.322C84.4513 13.102 83.8647 12.8233 83.278 12.486C82.6913 12.1487 82.2073 11.7087 81.826 11.166C81.4447 10.6087 81.254 9.912 81.254 9.076C81.254 8.31333 81.4593 7.61667 81.87 6.986C82.2807 6.35533 82.8453 5.84933 83.564 5.468C84.2827 5.08667 85.1113 4.896 86.05 4.896C87.0327 4.896 87.854 5.07933 88.514 5.446C89.1887 5.798 89.7167 6.22333 90.098 6.722C90.494 7.206 90.758 7.65333 90.89 8.064L89.152 8.812C89.064 8.504 88.8953 8.18867 88.646 7.866C88.3967 7.52867 88.0593 7.25 87.634 7.03C87.2233 6.79533 86.7027 6.678 86.072 6.678C85.5587 6.678 85.0747 6.78067 84.62 6.986C84.18 7.19133 83.8207 7.47733 83.542 7.844C83.278 8.196 83.146 8.60667 83.146 9.076C83.146 9.736 83.41 10.2567 83.938 10.638C84.466 11.0193 85.1773 11.364 86.072 11.672L87.106 12.024C87.5753 12.1853 88.052 12.3833 88.536 12.618C89.0347 12.8527 89.4967 13.1533 89.922 13.52C90.3473 13.8867 90.692 14.3413 90.956 14.884C91.22 15.412 91.352 16.05 91.352 16.798C91.352 17.6047 91.1907 18.3013 90.868 18.888C90.56 19.46 90.1493 19.9293 89.636 20.296C89.1227 20.6627 88.558 20.9267 87.942 21.088C87.3407 21.264 86.7467 21.352 86.16 21.352ZM98.7335 21.352C97.6482 21.352 96.6802 21.0953 95.8295 20.582C94.9935 20.0687 94.3335 19.3647 93.8495 18.47C93.3802 17.5753 93.1455 16.556 93.1455 15.412C93.1455 14.3413 93.3655 13.3513 93.8055 12.442C94.2602 11.5327 94.8908 10.8067 95.6975 10.264C96.5188 9.70667 97.4795 9.428 98.5795 9.428C99.6942 9.428 100.648 9.67733 101.44 10.176C102.246 10.66 102.862 11.3347 103.288 12.2C103.728 13.0653 103.948 14.0553 103.948 15.17C103.948 15.2727 103.94 15.3753 103.926 15.478C103.926 15.5807 103.918 15.6687 103.904 15.742H95.0155C95.0742 16.622 95.2868 17.3553 95.6535 17.942C96.0348 18.514 96.5042 18.9467 97.0615 19.24C97.6188 19.5187 98.1982 19.658 98.7995 19.658C99.6208 19.658 100.296 19.4673 100.824 19.086C101.366 18.69 101.799 18.206 102.122 17.634L103.706 18.404C103.266 19.2547 102.635 19.9587 101.814 20.516C100.992 21.0733 99.9655 21.352 98.7335 21.352ZM98.5795 11.122C97.6702 11.122 96.9148 11.408 96.3135 11.98C95.7122 12.552 95.3162 13.2927 95.1255 14.202H101.968C101.953 13.7767 101.828 13.3293 101.594 12.86C101.374 12.376 101.022 11.9653 100.538 11.628C100.054 11.2907 99.4008 11.122 98.5795 11.122ZM109.829 21.352C108.993 21.352 108.26 21.1907 107.629 20.868C106.999 20.5453 106.5 20.1053 106.133 19.548C105.781 18.976 105.605 18.3307 105.605 17.612C105.605 16.7907 105.818 16.1013 106.243 15.544C106.669 14.972 107.241 14.5467 107.959 14.268C108.678 13.9747 109.47 13.828 110.335 13.828C111.083 13.828 111.743 13.9087 112.315 14.07C112.887 14.2313 113.298 14.3927 113.547 14.554V13.872C113.547 13.0213 113.247 12.3467 112.645 11.848C112.044 11.3493 111.311 11.1 110.445 11.1C109.829 11.1 109.25 11.2393 108.707 11.518C108.179 11.782 107.761 12.156 107.453 12.64L106.045 11.584C106.485 10.924 107.087 10.4033 107.849 10.022C108.627 9.626 109.492 9.428 110.445 9.428C111.971 9.428 113.166 9.83133 114.031 10.638C114.897 11.4447 115.329 12.53 115.329 13.894V21H113.547V19.394H113.459C113.166 19.8927 112.704 20.3473 112.073 20.758C111.443 21.154 110.695 21.352 109.829 21.352ZM110.005 19.702C110.651 19.702 111.237 19.5407 111.765 19.218C112.308 18.8953 112.741 18.4627 113.063 17.92C113.386 17.3773 113.547 16.7833 113.547 16.138C113.21 15.9033 112.785 15.7127 112.271 15.566C111.773 15.4193 111.223 15.346 110.621 15.346C109.551 15.346 108.766 15.566 108.267 16.006C107.769 16.446 107.519 16.9887 107.519 17.634C107.519 18.25 107.754 18.7487 108.223 19.13C108.693 19.5113 109.287 19.702 110.005 19.702ZM117.931 21V9.78H119.713V11.584H119.801C119.948 11.1587 120.19 10.792 120.527 10.484C120.879 10.1613 121.275 9.912 121.715 9.736C122.17 9.54533 122.617 9.45 123.057 9.45C123.394 9.45 123.658 9.472 123.849 9.516C124.04 9.54533 124.216 9.59667 124.377 9.67V11.694C123.908 11.4593 123.38 11.342 122.793 11.342C122.25 11.342 121.752 11.496 121.297 11.804C120.842 12.112 120.476 12.5227 120.197 13.036C119.933 13.5493 119.801 14.114 119.801 14.73V21H117.931ZM130.597 21.352C129.497 21.352 128.514 21.0953 127.649 20.582C126.798 20.054 126.131 19.3427 125.647 18.448C125.163 17.5387 124.921 16.5193 124.921 15.39C124.921 14.246 125.163 13.2267 125.647 12.332C126.131 11.4373 126.798 10.7333 127.649 10.22C128.514 9.692 129.497 9.428 130.597 9.428C131.858 9.428 132.892 9.72133 133.699 10.308C134.52 10.88 135.1 11.6207 135.437 12.53L133.743 13.234C133.464 12.5447 133.046 12.024 132.489 11.672C131.946 11.3053 131.286 11.122 130.509 11.122C129.849 11.122 129.233 11.298 128.661 11.65C128.104 12.002 127.649 12.5007 127.297 13.146C126.945 13.7767 126.769 14.5247 126.769 15.39C126.769 16.2407 126.945 16.9887 127.297 17.634C127.649 18.2793 128.104 18.778 128.661 19.13C129.233 19.482 129.849 19.658 130.509 19.658C131.301 19.658 131.983 19.4747 132.555 19.108C133.127 18.7413 133.552 18.2207 133.831 17.546L135.503 18.25C135.136 19.1153 134.542 19.8487 133.721 20.45C132.9 21.0513 131.858 21.352 130.597 21.352ZM137.525 21V5.248H139.395V9.89L139.307 11.43H139.395C139.688 10.8727 140.165 10.4033 140.825 10.022C141.499 9.626 142.24 9.428 143.047 9.428C144.469 9.428 145.525 9.846 146.215 10.682C146.904 11.5033 147.249 12.5447 147.249 13.806V21H145.379V14.092C145.379 13.0067 145.1 12.244 144.543 11.804C144 11.3493 143.355 11.122 142.607 11.122C141.991 11.122 141.441 11.298 140.957 11.65C140.473 12.002 140.091 12.4567 139.813 13.014C139.534 13.5713 139.395 14.1507 139.395 14.752V21H137.525ZM162.392 21.352C161.234 21.352 160.156 21.1467 159.158 20.736C158.176 20.3107 157.31 19.7313 156.562 18.998C155.829 18.25 155.257 17.3773 154.846 16.38C154.436 15.368 154.23 14.2827 154.23 13.124C154.23 11.9507 154.436 10.8653 154.846 9.868C155.257 8.87067 155.829 8.00533 156.562 7.272C157.31 6.524 158.176 5.94467 159.158 5.534C160.156 5.10867 161.234 4.896 162.392 4.896C163.595 4.896 164.68 5.12333 165.648 5.578C166.616 6.018 167.452 6.64867 168.156 7.47L166.814 8.768C165.656 7.37467 164.182 6.678 162.392 6.678C161.263 6.678 160.222 6.942 159.268 7.47C158.315 7.998 157.552 8.746 156.98 9.714C156.408 10.6673 156.122 11.804 156.122 13.124C156.122 14.4293 156.408 15.566 156.98 16.534C157.552 17.502 158.315 18.25 159.268 18.778C160.222 19.306 161.263 19.57 162.392 19.57C163.419 19.57 164.328 19.3573 165.12 18.932C165.927 18.5067 166.638 17.9347 167.254 17.216L168.618 18.536C167.929 19.3573 167.049 20.032 165.978 20.56C164.908 21.088 163.712 21.352 162.392 21.352ZM175.673 21.352C174.544 21.352 173.547 21.088 172.681 20.56C171.816 20.032 171.134 19.3207 170.635 18.426C170.151 17.5167 169.909 16.5047 169.909 15.39C169.909 14.2753 170.151 13.2707 170.635 12.376C171.134 11.4667 171.816 10.748 172.681 10.22C173.547 9.692 174.544 9.428 175.673 9.428C176.803 9.428 177.8 9.69933 178.665 10.242C179.531 10.77 180.205 11.4887 180.689 12.398C181.188 13.2927 181.437 14.29 181.437 15.39C181.437 16.5047 181.188 17.5167 180.689 18.426C180.205 19.3207 179.531 20.032 178.665 20.56C177.8 21.088 176.803 21.352 175.673 21.352ZM175.673 19.658C176.348 19.658 176.979 19.4893 177.565 19.152C178.167 18.8147 178.651 18.3307 179.017 17.7C179.384 17.0547 179.567 16.2847 179.567 15.39C179.567 14.4953 179.384 13.7327 179.017 13.102C178.651 12.4567 178.167 11.9653 177.565 11.628C176.979 11.2907 176.348 11.122 175.673 11.122C174.999 11.122 174.361 11.2907 173.759 11.628C173.158 11.9653 172.674 12.4567 172.307 13.102C171.941 13.7327 171.757 14.4953 171.757 15.39C171.757 16.2847 171.941 17.0547 172.307 17.7C172.674 18.3307 173.158 18.8147 173.759 19.152C174.361 19.4893 174.999 19.658 175.673 19.658ZM183.394 21V9.78H185.176V11.43H185.264C185.557 10.8873 186.034 10.418 186.694 10.022C187.368 9.626 188.102 9.428 188.894 9.428C190.272 9.428 191.306 9.83133 191.996 10.638C192.7 11.43 193.052 12.486 193.052 13.806V21H191.182V14.092C191.182 13.0067 190.918 12.244 190.39 11.804C189.876 11.3493 189.209 11.122 188.388 11.122C187.772 11.122 187.229 11.298 186.76 11.65C186.29 11.9873 185.924 12.4273 185.66 12.97C185.396 13.5127 185.264 14.0847 185.264 14.686V21H183.394ZM199.534 21.352C198.273 21.352 197.246 21.0587 196.454 20.472C195.662 19.8707 195.112 19.1593 194.804 18.338L196.476 17.59C196.77 18.2647 197.195 18.7853 197.752 19.152C198.31 19.5187 198.948 19.702 199.666 19.702C200.356 19.702 200.928 19.5627 201.382 19.284C201.852 19.0053 202.086 18.5947 202.086 18.052C202.086 17.5533 201.866 17.1647 201.426 16.886C201.001 16.6073 200.4 16.3727 199.622 16.182L198.258 15.83C197.73 15.6833 197.232 15.478 196.762 15.214C196.293 14.95 195.912 14.6127 195.618 14.202C195.34 13.7767 195.2 13.2633 195.2 12.662C195.2 11.9873 195.398 11.408 195.794 10.924C196.19 10.44 196.711 10.0733 197.356 9.824C198.002 9.56 198.691 9.428 199.424 9.428C200.378 9.428 201.243 9.64067 202.02 10.066C202.812 10.4767 203.37 11.0707 203.692 11.848L202.064 12.596C201.786 12.0387 201.412 11.65 200.942 11.43C200.473 11.21 199.952 11.1 199.38 11.1C198.764 11.1 198.229 11.2393 197.774 11.518C197.32 11.782 197.092 12.1487 197.092 12.618C197.092 13.0873 197.276 13.4393 197.642 13.674C198.024 13.9087 198.486 14.0993 199.028 14.246L200.656 14.664C202.871 15.236 203.978 16.3213 203.978 17.92C203.978 18.624 203.78 19.2327 203.384 19.746C202.988 20.2593 202.453 20.6553 201.778 20.934C201.104 21.2127 200.356 21.352 199.534 21.352ZM211.294 21.352C210.165 21.352 209.168 21.088 208.302 20.56C207.437 20.032 206.755 19.3207 206.256 18.426C205.772 17.5167 205.53 16.5047 205.53 15.39C205.53 14.2753 205.772 13.2707 206.256 12.376C206.755 11.4667 207.437 10.748 208.302 10.22C209.168 9.692 210.165 9.428 211.294 9.428C212.424 9.428 213.421 9.69933 214.286 10.242C215.152 10.77 215.826 11.4887 216.31 12.398C216.809 13.2927 217.058 14.29 217.058 15.39C217.058 16.5047 216.809 17.5167 216.31 18.426C215.826 19.3207 215.152 20.032 214.286 20.56C213.421 21.088 212.424 21.352 211.294 21.352ZM211.294 19.658C211.969 19.658 212.6 19.4893 213.186 19.152C213.788 18.8147 214.272 18.3307 214.638 17.7C215.005 17.0547 215.188 16.2847 215.188 15.39C215.188 14.4953 215.005 13.7327 214.638 13.102C214.272 12.4567 213.788 11.9653 213.186 11.628C212.6 11.2907 211.969 11.122 211.294 11.122C210.62 11.122 209.982 11.2907 209.38 11.628C208.779 11.9653 208.295 12.4567 207.928 13.102C207.562 13.7327 207.378 14.4953 207.378 15.39C207.378 16.2847 207.562 17.0547 207.928 17.7C208.295 18.3307 208.779 18.8147 209.38 19.152C209.982 19.4893 210.62 19.658 211.294 19.658ZM219.122 21V5.248H220.992V21H219.122ZM228.65 21.352C227.564 21.352 226.596 21.0953 225.746 20.582C224.91 20.0687 224.25 19.3647 223.766 18.47C223.296 17.5753 223.062 16.556 223.062 15.412C223.062 14.3413 223.282 13.3513 223.722 12.442C224.176 11.5327 224.807 10.8067 225.614 10.264C226.435 9.70667 227.396 9.428 228.496 9.428C229.61 9.428 230.564 9.67733 231.356 10.176C232.162 10.66 232.778 11.3347 233.204 12.2C233.644 13.0653 233.864 14.0553 233.864 15.17C233.864 15.2727 233.856 15.3753 233.842 15.478C233.842 15.5807 233.834 15.6687 233.82 15.742H224.932C224.99 16.622 225.203 17.3553 225.57 17.942C225.951 18.514 226.42 18.9467 226.978 19.24C227.535 19.5187 228.114 19.658 228.716 19.658C229.537 19.658 230.212 19.4673 230.74 19.086C231.282 18.69 231.715 18.206 232.038 17.634L233.622 18.404C233.182 19.2547 232.551 19.9587 231.73 20.516C230.908 21.0733 229.882 21.352 228.65 21.352ZM228.496 11.122C227.586 11.122 226.831 11.408 226.23 11.98C225.628 12.552 225.232 13.2927 225.042 14.202H231.884C231.869 13.7767 231.744 13.3293 231.51 12.86C231.29 12.376 230.938 11.9653 230.454 11.628C229.97 11.2907 229.317 11.122 228.496 11.122Z" fill="#5E5E5E"/>
</svg>
